<svg width="143" height="22" viewBox="0 0 143 22" fill="none" xmlns="http://www.w3.org/2000/svg">
<g clip-path="url(#clip0_2_4)">
<rect width="143" height="22" fill="white"/>
<path d="M5.688 17.252C4.656 17.252 3.66 17.126 2.7 16.874C1.752 16.61 0.978 16.274 0.378 15.866L1.548 13.238C2.112 13.598 2.76 13.898 3.492 14.138C4.236 14.366 4.974 14.48 5.706 14.48C6.198 14.48 6.594 14.438 6.894 14.354C7.194 14.258 7.41 14.138 7.542 13.994C7.686 13.838 7.758 13.658 7.758 13.454C7.758 13.166 7.626 12.938 7.362 12.77C7.098 12.602 6.756 12.464 6.336 12.356C5.916 12.248 5.448 12.14 4.932 12.032C4.428 11.924 3.918 11.786 3.402 11.618C2.898 11.45 2.436 11.234 2.016 10.97C1.596 10.694 1.254 10.34 0.99 9.908C0.726 9.464 0.594 8.906 0.594 8.234C0.594 7.478 0.798 6.794 1.206 6.182C1.626 5.57 2.25 5.078 3.078 4.706C3.906 4.334 4.938 4.148 6.174 4.148C7.002 4.148 7.812 4.244 8.604 4.436C9.408 4.616 10.122 4.886 10.746 5.246L9.648 7.892C9.048 7.568 8.454 7.328 7.866 7.172C7.278 7.004 6.708 6.92 6.156 6.92C5.664 6.92 5.268 6.974 4.968 7.082C4.668 7.178 4.452 7.31 4.32 7.478C4.188 7.646 4.122 7.838 4.122 8.054C4.122 8.33 4.248 8.552 4.5 8.72C4.764 8.876 5.106 9.008 5.526 9.116C5.958 9.212 6.426 9.314 6.93 9.422C7.446 9.53 7.956 9.668 8.46 9.836C8.976 9.992 9.444 10.208 9.864 10.484C10.284 10.748 10.62 11.102 10.872 11.546C11.136 11.978 11.268 12.524 11.268 13.184C11.268 13.916 11.058 14.594 10.638 15.218C10.23 15.83 9.612 16.322 8.784 16.694C7.968 17.066 6.936 17.252 5.688 17.252ZM12.7523 17V7.244H16.1723V17H12.7523ZM14.4623 6.164C13.8383 6.164 13.3343 5.99 12.9503 5.642C12.5663 5.294 12.3743 4.862 12.3743 4.346C12.3743 3.83 12.5663 3.398 12.9503 3.05C13.3343 2.702 13.8383 2.528 14.4623 2.528C15.0863 2.528 15.5903 2.696 15.9743 3.032C16.3583 3.356 16.5503 3.776 16.5503 4.292C16.5503 4.832 16.3583 5.282 15.9743 5.642C15.6023 5.99 15.0983 6.164 14.4623 6.164ZM22.6429 17.162C21.7549 17.162 20.9449 16.958 20.2129 16.55C19.4929 16.13 18.9169 15.548 18.4849 14.804C18.0529 14.048 17.8369 13.148 17.8369 12.104C17.8369 11.072 18.0529 10.184 18.4849 9.44C18.9169 8.684 19.4929 8.102 20.2129 7.694C20.9449 7.286 21.7549 7.082 22.6429 7.082C23.4829 7.082 24.1909 7.262 24.7669 7.622C25.3549 7.982 25.7989 8.534 26.0989 9.278C26.3989 10.022 26.5489 10.964 26.5489 12.104C26.5489 13.268 26.4049 14.222 26.1169 14.966C25.8289 15.71 25.3969 16.262 24.8209 16.622C24.2449 16.982 23.5189 17.162 22.6429 17.162ZM23.3629 14.444C23.7469 14.444 24.0889 14.354 24.3889 14.174C24.7009 13.994 24.9469 13.73 25.1269 13.382C25.3069 13.022 25.3969 12.596 25.3969 12.104C25.3969 11.612 25.3069 11.198 25.1269 10.862C24.9469 10.514 24.7009 10.25 24.3889 10.07C24.0889 9.89 23.7469 9.8 23.3629 9.8C22.9669 9.8 22.6129 9.89 22.3009 10.07C22.0009 10.25 21.7609 10.514 21.5809 10.862C21.4009 11.198 21.3109 11.612 21.3109 12.104C21.3109 12.596 21.4009 13.022 21.5809 13.382C21.7609 13.73 22.0009 13.994 22.3009 14.174C22.6129 14.354 22.9669 14.444 23.3629 14.444ZM25.5049 17V15.326L25.5229 12.104L25.3429 8.882V3.644H28.7629V17H25.5049ZM37.3172 7.082C38.0732 7.082 38.7572 7.238 39.3692 7.55C39.9812 7.85 40.4612 8.318 40.8092 8.954C41.1692 9.59 41.3492 10.412 41.3492 11.42V17H37.9292V11.978C37.9292 11.282 37.7852 10.778 37.4972 10.466C37.2212 10.142 36.8312 9.98 36.3272 9.98C35.9672 9.98 35.6372 10.064 35.3372 10.232C35.0372 10.388 34.8032 10.634 34.6352 10.97C34.4672 11.306 34.3832 11.744 34.3832 12.284V17H30.9632V3.644H34.3832V10.016L33.5912 9.206C33.9632 8.498 34.4732 7.97 35.1212 7.622C35.7692 7.262 36.5012 7.082 37.3172 7.082ZM49.4544 17V15.182L49.2204 14.732V11.384C49.2204 10.844 49.0524 10.43 48.7164 10.142C48.3924 9.842 47.8704 9.692 47.1504 9.692C46.6824 9.692 46.2084 9.77 45.7284 9.926C45.2484 10.07 44.8404 10.274 44.5044 10.538L43.3524 8.216C43.9044 7.856 44.5644 7.58 45.3324 7.388C46.1124 7.184 46.8864 7.082 47.6544 7.082C49.2384 7.082 50.4624 7.448 51.3264 8.18C52.2024 8.9 52.6404 10.034 52.6404 11.582V17H49.4544ZM46.5744 17.162C45.7944 17.162 45.1344 17.03 44.5944 16.766C44.0544 16.502 43.6404 16.142 43.3524 15.686C43.0764 15.23 42.9384 14.72 42.9384 14.156C42.9384 13.556 43.0884 13.04 43.3884 12.608C43.7004 12.164 44.1744 11.828 44.8104 11.6C45.4464 11.36 46.2684 11.24 47.2764 11.24H49.5804V13.022H47.7444C47.1924 13.022 46.8024 13.112 46.5744 13.292C46.3584 13.472 46.2504 13.712 46.2504 14.012C46.2504 14.312 46.3644 14.552 46.5924 14.732C46.8204 14.912 47.1324 15.002 47.5284 15.002C47.9004 15.002 48.2364 14.912 48.5364 14.732C48.8484 14.54 49.0764 14.252 49.2204 13.868L49.6884 15.128C49.5084 15.8 49.1544 16.31 48.6264 16.658C48.1104 16.994 47.4264 17.162 46.5744 17.162ZM61.1532 7.082C61.9092 7.082 62.5932 7.238 63.2052 7.55C63.8172 7.85 64.2972 8.318 64.6452 8.954C65.0052 9.59 65.1852 10.412 65.1852 11.42V17H61.7652V11.978C61.7652 11.282 61.6212 10.778 61.3332 10.466C61.0572 10.142 60.6672 9.98 60.1632 9.98C59.8032 9.98 59.4732 10.064 59.1732 10.232C58.8732 10.388 58.6392 10.634 58.4712 10.97C58.3032 11.306 58.2192 11.744 58.2192 12.284V17H54.7992V7.244H58.0572V10.016L57.4272 9.206C57.7992 8.498 58.3092 7.97 58.9572 7.622C59.6052 7.262 60.3372 7.082 61.1532 7.082ZM71.6884 17.162C70.4404 17.162 69.4684 16.856 68.7724 16.244C68.0764 15.62 67.7284 14.684 67.7284 13.436V5.066H71.1484V13.4C71.1484 13.748 71.2444 14.024 71.4364 14.228C71.6284 14.42 71.8744 14.516 72.1744 14.516C72.5824 14.516 72.9304 14.414 73.2184 14.21L74.0644 16.604C73.7764 16.796 73.4224 16.934 73.0024 17.018C72.5824 17.114 72.1444 17.162 71.6884 17.162ZM66.3064 10.16V7.604H73.3804V10.16H66.3064ZM76.9989 17.162C76.4229 17.162 75.9369 16.97 75.5409 16.586C75.1449 16.202 74.9469 15.716 74.9469 15.128C74.9469 14.516 75.1449 14.03 75.5409 13.67C75.9369 13.298 76.4229 13.112 76.9989 13.112C77.5749 13.112 78.0609 13.298 78.4569 13.67C78.8529 14.03 79.0509 14.516 79.0509 15.128C79.0509 15.716 78.8529 16.202 78.4569 16.586C78.0609 16.97 77.5749 17.162 76.9989 17.162ZM85.4224 17.252C84.3904 17.252 83.3944 17.126 82.4344 16.874C81.4864 16.61 80.7124 16.274 80.1124 15.866L81.2824 13.238C81.8464 13.598 82.4944 13.898 83.2264 14.138C83.9704 14.366 84.7084 14.48 85.4404 14.48C85.9324 14.48 86.3284 14.438 86.6284 14.354C86.9284 14.258 87.1444 14.138 87.2764 13.994C87.4204 13.838 87.4924 13.658 87.4924 13.454C87.4924 13.166 87.3604 12.938 87.0964 12.77C86.8324 12.602 86.4904 12.464 86.0704 12.356C85.6504 12.248 85.1824 12.14 84.6664 12.032C84.1624 11.924 83.6524 11.786 83.1364 11.618C82.6324 11.45 82.1704 11.234 81.7504 10.97C81.3304 10.694 80.9884 10.34 80.7244 9.908C80.4604 9.464 80.3284 8.906 80.3284 8.234C80.3284 7.478 80.5324 6.794 80.9404 6.182C81.3604 5.57 81.9844 5.078 82.8124 4.706C83.6404 4.334 84.6724 4.148 85.9084 4.148C86.7364 4.148 87.5464 4.244 88.3384 4.436C89.1424 4.616 89.8564 4.886 90.4804 5.246L89.3824 7.892C88.7824 7.568 88.1884 7.328 87.6004 7.172C87.0124 7.004 86.4424 6.92 85.8904 6.92C85.3984 6.92 85.0024 6.974 84.7024 7.082C84.4024 7.178 84.1864 7.31 84.0544 7.478C83.9224 7.646 83.8564 7.838 83.8564 8.054C83.8564 8.33 83.9824 8.552 84.2344 8.72C84.4984 8.876 84.8404 9.008 85.2604 9.116C85.6924 9.212 86.1604 9.314 86.6644 9.422C87.1804 9.53 87.6904 9.668 88.1944 9.836C88.7104 9.992 89.1784 10.208 89.5984 10.484C90.0184 10.748 90.3544 11.102 90.6064 11.546C90.8704 11.978 91.0024 12.524 91.0024 13.184C91.0024 13.916 90.7924 14.594 90.3724 15.218C89.9644 15.83 89.3464 16.322 88.5184 16.694C87.7024 17.066 86.6704 17.252 85.4224 17.252ZM98.4447 17V15.182L98.2107 14.732V11.384C98.2107 10.844 98.0427 10.43 97.7067 10.142C97.3827 9.842 96.8607 9.692 96.1407 9.692C95.6727 9.692 95.1987 9.77 94.7187 9.926C94.2387 10.07 93.8307 10.274 93.4947 10.538L92.3427 8.216C92.8947 7.856 93.5547 7.58 94.3227 7.388C95.1027 7.184 95.8767 7.082 96.6447 7.082C98.2287 7.082 99.4527 7.448 100.317 8.18C101.193 8.9 101.631 10.034 101.631 11.582V17H98.4447ZM95.5647 17.162C94.7847 17.162 94.1247 17.03 93.5847 16.766C93.0447 16.502 92.6307 16.142 92.3427 15.686C92.0667 15.23 91.9287 14.72 91.9287 14.156C91.9287 13.556 92.0787 13.04 92.3787 12.608C92.6907 12.164 93.1647 11.828 93.8007 11.6C94.4367 11.36 95.2587 11.24 96.2667 11.24H98.5707V13.022H96.7347C96.1827 13.022 95.7927 13.112 95.5647 13.292C95.3487 13.472 95.2407 13.712 95.2407 14.012C95.2407 14.312 95.3547 14.552 95.5827 14.732C95.8107 14.912 96.1227 15.002 96.5187 15.002C96.8907 15.002 97.2267 14.912 97.5267 14.732C97.8387 14.54 98.0667 14.252 98.2107 13.868L98.6787 15.128C98.4987 15.8 98.1447 16.31 97.6167 16.658C97.1007 16.994 96.4167 17.162 95.5647 17.162ZM103.789 17V7.244H107.047V10.088L106.561 9.278C106.849 8.546 107.317 8 107.965 7.64C108.613 7.268 109.399 7.082 110.323 7.082V10.16C110.167 10.136 110.029 10.124 109.909 10.124C109.801 10.112 109.681 10.106 109.549 10.106C108.853 10.106 108.289 10.298 107.857 10.682C107.425 11.054 107.209 11.666 107.209 12.518V17H103.789ZM115.895 17.162C115.007 17.162 114.197 16.958 113.465 16.55C112.745 16.13 112.169 15.548 111.737 14.804C111.305 14.048 111.089 13.148 111.089 12.104C111.089 11.072 111.305 10.184 111.737 9.44C112.169 8.684 112.745 8.102 113.465 7.694C114.197 7.286 115.007 7.082 115.895 7.082C116.735 7.082 117.443 7.262 118.019 7.622C118.607 7.982 119.051 8.534 119.351 9.278C119.651 10.022 119.801 10.964 119.801 12.104C119.801 13.268 119.657 14.222 119.369 14.966C119.081 15.71 118.649 16.262 118.073 16.622C117.497 16.982 116.771 17.162 115.895 17.162ZM116.615 14.444C116.999 14.444 117.341 14.354 117.641 14.174C117.953 13.994 118.199 13.73 118.379 13.382C118.559 13.022 118.649 12.596 118.649 12.104C118.649 11.612 118.559 11.198 118.379 10.862C118.199 10.514 117.953 10.25 117.641 10.07C117.341 9.89 116.999 9.8 116.615 9.8C116.219 9.8 115.865 9.89 115.553 10.07C115.253 10.25 115.013 10.514 114.833 10.862C114.653 11.198 114.563 11.612 114.563 12.104C114.563 12.596 114.653 13.022 114.833 13.382C115.013 13.73 115.253 13.994 115.553 14.174C115.865 14.354 116.219 14.444 116.615 14.444ZM118.757 17V15.326L118.775 12.104L118.595 8.882V3.644H122.015V17H118.757ZM130.173 17V15.182L129.939 14.732V11.384C129.939 10.844 129.771 10.43 129.435 10.142C129.111 9.842 128.589 9.692 127.869 9.692C127.401 9.692 126.927 9.77 126.447 9.926C125.967 10.07 125.559 10.274 125.223 10.538L124.071 8.216C124.623 7.856 125.283 7.58 126.051 7.388C126.831 7.184 127.605 7.082 128.373 7.082C129.957 7.082 131.181 7.448 132.045 8.18C132.921 8.9 133.359 10.034 133.359 11.582V17H130.173ZM127.293 17.162C126.513 17.162 125.853 17.03 125.313 16.766C124.773 16.502 124.359 16.142 124.071 15.686C123.795 15.23 123.657 14.72 123.657 14.156C123.657 13.556 123.807 13.04 124.107 12.608C124.419 12.164 124.893 11.828 125.529 11.6C126.165 11.36 126.987 11.24 127.995 11.24H130.299V13.022H128.463C127.911 13.022 127.521 13.112 127.293 13.292C127.077 13.472 126.969 13.712 126.969 14.012C126.969 14.312 127.083 14.552 127.311 14.732C127.539 14.912 127.851 15.002 128.247 15.002C128.619 15.002 128.955 14.912 129.255 14.732C129.567 14.54 129.795 14.252 129.939 13.868L130.407 15.128C130.227 15.8 129.873 16.31 129.345 16.658C128.829 16.994 128.145 17.162 127.293 17.162ZM135.518 17V7.244H138.776V10.088L138.29 9.278C138.578 8.546 139.046 8 139.694 7.64C140.342 7.268 141.128 7.082 142.052 7.082V10.16C141.896 10.136 141.758 10.124 141.638 10.124C141.53 10.112 141.41 10.106 141.278 10.106C140.582 10.106 140.018 10.298 139.586 10.682C139.154 11.054 138.938 11.666 138.938 12.518V17H135.518Z" fill="black"/>
</g>
<defs>
<clipPath id="clip0_2_4">
<rect width="143" height="22" fill="white"/>
</clipPath>
</defs>
</svg>
